PathFileType	4	(X/Y/Z)	./resultDataOpenSim/trcMotMarkerGrf/sub06/qtm-04-07.trc
DataRate	CameraRate	NumFrames	NumMarkers	Units	OrigDataRate	OrigDataStartFrame	OrigNumFrames
250.000000	250.000000	14	24	m	250.000000	208	554
Frame#	Time	L.Toe.Tip			R.Toe.Tip			L.Ankle.Lat			R.Ankle.Lat			L.Ankle.Med			R.Ankle.Med			L.Heel			R.Heel			L.Knee.Lat			R.Knee.Lat			L.Knee.Med			R.Knee.Med			L.Thigh.Upper			R.Thigh.Upper			L.ASIS			R.ASIS			V.Sacral			L.Acromium			R.Acromium			C7			L.Elbow			R.Elbow			L.Wrist.Lat			R.Wrist.Lat
		X1	Y1	Z1	X2	Y2	Z2	X3	Y3	Z3	X4	Y4	Z4	X5	Y5	Z5	X6	Y6	Z6	X7	Y7	Z7	X8	Y8	Z8	X9	Y9	Z9	X10	Y10	Z10	X11	Y11	Z11	X12	Y12	Z12	X13	Y13	Z13	X14	Y14	Z14	X15	Y15	Z15	X16	Y16	Z16	X17	Y17	Z17	X18	Y18	Z18	X19	Y19	Z19	X20	Y20	Z20	X21	Y21	Z21	X22	Y22	Z22	X23	Y23	Z23	X24	Y24	Z24

208	0.828	0.053406772	-0.04011625	-0.030116402	-0.58541902	0.088539351	0.11113948	-0.067310048	-0.01042695	-0.050130443	-0.58464895	0.2253732	0.13570435	-0.066941393	0.0052882611	0.037146567	-0.54333613	0.20906094	0.057644907	-0.14479512	-0.033573131	-0.0048431037	-0.60315676	0.27210487	0.070879309	0.038721965	0.34511279	-0.0846008	-0.21830346	0.29543187	0.20395022	0.014252892	0.34645408	0.035245614	-0.22586352	0.28417061	0.072230344	-0.13704974	0.70153052	-0.15305237	-0.22285179	0.65460948	0.17918798	-0.082564772	0.73587395	-0.094972712	-0.12038273	0.7159104	0.14931078	-0.2924785	0.80332523	0.0088413509	-0.14950822	1.1964097	-0.18394455	-0.15813549	1.2049488	0.17991703	-0.2329797	1.2453994	-0.0063174944	-0.25076975	0.9008518	-0.21921168	-0.21449497	0.89821651	0.27852124	-0.17038626	0.67628087	-0.28123044	-0.027499178	0.73563391	0.28866594
209	0.832	0.053426376	-0.040116237	-0.030113267	-0.57001583	0.090619729	0.11247276	-0.067248327	-0.010373852	-0.050105046	-0.56956985	0.22778491	0.13622983	-0.066856249	0.0053595721	0.037161909	-0.52847263	0.21106355	0.057790384	-0.14477975	-0.033441887	-0.0048122163	-0.58893036	0.27413244	0.071224259	0.040602074	0.34491343	-0.084433645	-0.20412559	0.29709113	0.20427406	0.015499871	0.3464454	0.035320351	-0.21220739	0.28568757	0.072409714	-0.13224046	0.70270053	-0.15342298	-0.21680867	0.65665176	0.17957274	-0.077486029	0.73718649	-0.095466084	-0.11465799	0.71793704	0.14906664	-0.28659306	0.8053563	0.0085691069	-0.14275887	1.1984226	-0.18385346	-0.15257439	1.2067031	0.18015758	-0.2265371	1.2473583	-0.0063701572	-0.24324814	0.90242773	-0.21990496	-0.21075951	0.8999509	0.27761909	-0.16063879	0.67827922	-0.28076111	-0.025478424	0.73568043	0.28909438
210	0.836	0.05343646	-0.040116932	-0.030121817	-0.5543384	0.092651628	0.11362241	-0.067220107	-0.010315033	-0.050094635	-0.55437418	0.23004749	0.13681011	-0.066792052	0.0054411896	0.037173036	-0.51358015	0.21300682	0.058019108	-0.1447667	-0.033309225	-0.0047875762	-0.57467426	0.27598471	0.071688919	0.042279938	0.34479309	-0.084274533	-0.18994514	0.29903218	0.20452296	0.016879418	0.34650454	0.035504048	-0.19845817	0.28737776	0.072555801	-0.127516	0.70396937	-0.15373435	-0.21079473	0.65882593	0.17998766	-0.072409106	0.73857838	-0.095976715	-0.10895048	0.72000552	0.14881534	-0.28014225	0.8072887	0.0095264473	-0.13610973	1.2005426	-0.18372874	-0.14703654	1.2085329	0.18041378	-0.22012764	1.2493996	-0.0063892739	-0.23578641	0.90408134	-0.22060849	-0.20709882	0.90178823	0.27674598	-0.1508764	0.68039732	-0.2802447	-0.023537082	0.73585749	0.28951777
211	0.84	0.053439393	-0.040117743	-0.030140122	-0.53839565	0.094633706	0.11461458	-0.067241171	-0.010255482	-0.050117966	-0.5391722	0.23210567	0.13740215	-0.066765605	0.0055236961	0.037180987	-0.49873094	0.21496044	0.058409523	-0.14475788	-0.033170066	-0.0047668514	-0.56048201	0.27769406	0.072243043	0.043739753	0.34473122	-0.084138694	-0.17577658	0.30124666	0.20469504	0.018396896	0.34662583	0.035782686	-0.18465901	0.28928443	0.072592917	-0.12286136	0.70531802	-0.15397361	-0.20480021	0.66113809	0.18039118	-0.067257218	0.74007006	-0.096506793	-0.10325095	0.72211961	0.14855109	-0.27371115	0.80925615	0.010973697	-0.12955711	1.2027636	-0.18357611	-0.14150727	1.2104355	0.18068035	-0.21374378	1.2515218	-0.0063782757	-0.22838592	0.90581483	-0.22132533	-0.20349814	0.90372783	0.27589833	-0.14110696	0.68263426	-0.27967952	-0.021666892	0.73615463	0.28993626
212	0.844	0.053437449	-0.040117444	-0.030164224	-0.52220667	0.096515152	0.1154918	-0.067307128	-0.010189167	-0.05017788	-0.5240481	0.23393131	0.13797121	-0.066811503	0.005590203	0.037188966	-0.4838811	0.2168883	0.058820872	-0.1447551	-0.033023369	-0.0047508046	-0.54636576	0.27925244	0.072848608	0.045005637	0.34471243	-0.084013202	-0.16163462	0.30372513	0.20479249	0.019885396	0.34676723	0.036072268	-0.17085792	0.29145343	0.072467662	-0.11826456	0.70673527	-0.1541647	-0.19886338	0.66359107	0.18074959	-0.062044166	0.74167157	-0.09703923	-0.097558134	0.72429038	0.14828048	-0.26747892	0.81137124	0.01225932	-0.12310508	1.20508	-0.18340371	-0.13596822	1.2124052	0.18095105	-0.20738007	1.2537291	-0.0063239436	-0.22102756	0.90762846	-0.22205595	-0.19993345	0.90577306	0.27507632	-0.13132692	0.68499515	-0.279056	-0.019867544	0.73656502	0.29035345
213	0.848	0.053433786	-0.040114152	-0.030189472	-0.50578395	0.098247982	0.11629323	-0.067387847	-0.010102922	-0.05025089	-0.50902741	0.23553194	0.13850712	-0.066958662	0.0056316047	0.037193721	-0.46898059	0.21873065	0.059136374	-0.14475846	-0.032872816	-0.004739772	-0.53231031	0.28061519	0.073466697	0.046147059	0.34472953	-0.083858249	-0.14752665	0.30645912	0.20481894	0.021200532	0.34690009	0.036320447	-0.15707133	0.29391392	0.072198072	-0.11376139	0.70821821	-0.15435133	-0.1930057	0.66617043	0.18103534	-0.056827628	0.74337504	-0.097554526	-0.091871283	0.72652913	0.14801112	-0.26139274	0.81366748	0.013041123	-0.11675521	1.2074874	-0.18321611	-0.13040076	1.2144322	0.18121959	-0.20102972	1.2560254	-0.006213354	-0.21369322	0.90952219	-0.22279622	-0.19637295	0.90792931	0.27428048	-0.12150545	0.68748746	-0.27835357	-0.018139795	0.73708856	0.29077712
214	0.852	0.053428349	-0.040107518	-0.030212864	-0.48911194	0.099803971	0.11705541	-0.067455174	-0.0099908539	-0.050306258	-0.49410846	0.23692128	0.1390062	-0.067168852	0.0056716707	0.037176785	-0.45404736	0.22046388	0.059409699	-0.1447667	-0.032725142	-0.0047313809	-0.51830313	0.2817546	0.074057914	0.047214776	0.34478041	-0.083647091	-0.13345231	0.30944578	0.20477765	0.022310024	0.34702792	0.036540339	-0.14326307	0.29666011	0.071863612	-0.10935805	0.70977925	-0.1545661	-0.18720351	0.66884871	0.18125359	-0.051642735	0.74515698	-0.09804361	-0.086187351	0.72884157	0.14774332	-0.25544706	0.81609681	0.013231895	-0.11048761	1.2099813	-0.18300662	-0.12479426	1.2165114	0.18148284	-0.1946923	1.2584017	-0.0060487838	-0.20638058	0.91149429	-0.22354157	-0.19280299	0.91019846	0.27350802	-0.11160055	0.69011755	-0.27754962	-0.016475733	0.73772659	0.29122071
215	0.856	0.05341504	-0.040100188	-0.030236625	-0.47214984	0.10115777	0.11781025	-0.067504821	-0.0098599892	-0.050333461	-0.47928402	0.23810019	0.13946434	-0.067333922	0.0057606641	0.03711753	-0.43911235	0.22207784	0.059749328	-0.14477857	-0.032584004	-0.0047221307	-0.50431904	0.28265257	0.074586777	0.048192249	0.34486365	-0.083394583	-0.11941058	0.31268837	0.20467362	0.023234487	0.34716699	0.036765644	-0.12940572	0.29966166	0.071517179	-0.10492707	0.71145164	-0.15479799	-0.18140157	0.67159707	0.18144619	-0.046477917	0.74699075	-0.098507667	-0.080502923	0.73122766	0.1474731	-0.2497096	0.81859884	0.012928897	-0.10426081	1.2125551	-0.18276323	-0.11915138	1.2186413	0.18174033	-0.18837783	1.2608307	-0.0058466923	-0.19909605	0.91354045	-0.22429071	-0.18924028	0.91257543	0.27275466	-0.1016158	0.69288049	-0.27664709	-0.014854933	0.73847627	0.29169936
216	0.86	0.05339122	-0.040093809	-0.030266744	-0.45487746	0.10229594	0.11856805	-0.067546164	-0.0097203081	-0.050343715	-0.46451272	0.23907306	0.1398935	-0.06737059	0.0059258995	0.03702509	-0.42416398	0.22354808	0.060203922	-0.14479193	-0.032445047	-0.0047099749	-0.49035078	0.28327131	0.075046032	0.049033206	0.34497977	-0.083133546	-0.10540719	0.31618787	0.20451237	0.023969225	0.34732592	0.037004061	-0.11554407	0.30289286	0.071129831	-0.10027483	0.71326651	-0.15499038	-0.17552923	0.67439273	0.18165543	-0.041300382	0.74886098	-0.098949809	-0.07481747	0.73368434	0.14719242	-0.24416375	0.82115234	0.012375146	-0.098040885	1.2152002	-0.18248438	-0.11348102	1.2208163	0.18199092	-0.18209793	1.2632813	-0.0056218743	-0.19184087	0.91565515	-0.22504087	-0.18570617	0.91504957	0.2720155	-0.091629788	0.69575156	-0.2756922	-0.013249321	0.73933157	0.2922129
217	0.864	0.053363723	-0.040085941	-0.030307472	-0.43734107	0.10325377	0.11931015	-0.067587051	-0.0095757271	-0.050353131	-0.44970764	0.23986194	0.14032735	-0.067283339	0.0061500324	0.036936004	-0.40918486	0.22485553	0.060781284	-0.14480325	-0.032298585	-0.0046946316	-0.47645069	0.28358472	0.07549216	0.049719327	0.34513391	-0.082879148	-0.091455743	0.31993457	0.20429523	0.024463814	0.34749985	0.037229253	-0.101749	0.30634719	0.070654112	-0.095315222	0.71521517	-0.15509028	-0.16949715	0.67723038	0.18188069	-0.036098085	0.75076736	-0.099364575	-0.069137403	0.7362073	0.14688519	-0.23866579	0.82376184	0.011860501	-0.091822349	1.2179105	-0.18218088	-0.10779049	1.2230267	0.18223416	-0.17585578	1.2657372	-0.005378717	-0.18460649	0.91783144	-0.22578283	-0.18219978	0.91760836	0.27128577	-0.081738362	0.698698	-0.27474673	-0.011633518	0.74028345	0.29273568
218	0.868	0.053339659	-0.04007394	-0.030359418	-0.41962802	0.10411539	0.1200099	-0.0676316	-0.0094241171	-0.050371498	-0.43480593	0.24047915	0.14079235	-0.067132845	0.0064000688	0.03687129	-0.39420691	0.22601065	0.061448054	-0.14481181	-0.032136238	-0.0046729405	-0.46270072	0.28359821	0.07603125	0.050266427	0.34533087	-0.082626292	-0.077574492	0.32391167	0.20401977	0.024648551	0.34767069	0.037399501	-0.088048967	0.31002994	0.070094573	-0.09014038	0.717244	-0.15510901	-0.16320969	0.68013176	0.1820917	-0.0308954	0.75271479	-0.099734609	-0.063473012	0.73879176	0.14653412	-0.23309141	0.82641435	0.011562474	-0.085615645	1.2206812	-0.18186285	-0.10208769	1.2252652	0.18247222	-0.16964787	1.2681991	-0.0051182887	-0.177382	0.92006049	-0.2265002	-0.17870818	0.92024088	0.27056452	-0.071983516	0.70169973	-0.27384143	-0.0099992587	0.74131914	0.29323512
219	0.872	0.053319583	-0.040058661	-0.030421438	-0.40179129	0.10495626	0.12066244	-0.067682586	-0.0092609422	-0.050400403	-0.41983314	0.24089766	0.14127819	-0.066991325	0.0066489441	0.036818515	-0.37930723	0.22702974	0.062089173	-0.14482353	-0.031954187	-0.0046317453	-0.44913139	0.2833153	0.076732149	0.050699166	0.34556844	-0.082366057	-0.06378241	0.32810385	0.20368575	0.024493112	0.3478176	0.037491837	-0.074438756	0.31393744	0.069502853	-0.084932603	0.71929093	-0.15512249	-0.1566525	0.68312668	0.18229422	-0.025731895	0.75470121	-0.10004027	-0.057820073	0.74143389	0.14614314	-0.22743968	0.82905769	0.011493076	-0.079426168	1.2234992	-0.18152879	-0.096380398	1.2275272	0.18270697	-0.163471	1.2706706	-0.0048441311	-0.17016715	0.9223342	-0.2271674	-0.17523511	0.92293699	0.26985696	-0.062346036	0.70475534	-0.27295652	-0.0083731367	0.74242903	0.29369518
220	0.876	0.053301171	-0.040042847	-0.030491774	-0.38383365	0.10577256	0.12128563	-0.067742467	-0.0090834356	-0.050435168	-0.40484788	0.24107867	0.14175847	-0.06690356	0.0068810416	0.036760531	-0.36453833	0.22789531	0.062579525	-0.14484947	-0.03175405	-0.0045496424	-0.43568364	0.28272562	0.077548749	0.051034416	0.34584004	-0.082096609	-0.050095037	0.33249811	0.2032992	0.02404075	0.34793571	0.03752221	-0.060915849	0.31805946	0.068937177	-0.079773424	0.72132647	-0.15520478	-0.1499842	0.68620212	0.18255389	-0.020623887	0.75671442	-0.10027606	-0.052150102	0.74413285	0.14574634	-0.22176476	0.83163263	0.011627484	-0.07324533	1.226336	-0.18116269	-0.090667505	1.229806	0.18293959	-0.15732464	1.2731465	-0.0045599657	-0.16297665	0.92464685	-0.22775192	-0.17180654	0.92568417	0.26917101	-0.052764955	0.70787531	-0.27203573	-0.0068180001	0.7436125	0.29411678
221	0.88	0.053282853	-0.040028099	-0.030567976	-0.36576394	0.10647472	0.12188914	-0.067813695	-0.0088939015	-0.050468464	-0.38984594	0.24101744	0.14223297	-0.066852192	0.0071029355	0.036699995	-0.34981826	0.22855951	0.062910823	-0.14489952	-0.031546484	-0.0044143655	-0.42224729	0.28182728	0.078333592	0.051282462	0.34614149	-0.081822542	-0.03652084	0.3370801	0.20287015	0.023350654	0.34804466	0.037524065	-0.047479619	0.32242508	0.068425179	-0.074559519	0.72335723	-0.15535802	-0.14346043	0.68928078	0.18290269	-0.015536017	0.75873831	-0.1004617	-0.046433474	0.74689016	0.14537778	-0.21610475	0.83413587	0.011969583	-0.067049928	1.2291569	-0.18074383	-0.084942477	1.2320933	0.18317293	-0.15120907	1.2756142	-0.004268451	-0.15582657	0.92699413	-0.22823411	-0.16844017	0.92846953	0.26850874	-0.043167316	0.71107245	-0.27102439	-0.0053836483	0.74486993	0.29450736
